<?xml version="1.0" standalone="no"?>
<!DOCTYPE svg PUBLIC "-//W3C//DTD SVG 20010904//EN"
 "http://www.w3.org/TR/2001/REC-SVG-20010904/DTD/svg10.dtd">
<svg version="1.0" xmlns="http://www.w3.org/2000/svg"
 width="1024.000000pt" height="1024.000000pt" viewBox="0 0 1024.000000 1024.000000"
 preserveAspectRatio="xMidYMid meet">

<g transform="translate(0.000000,1024.000000) scale(0.100000,-0.100000)"
fill="#000000" stroke="none">
<path d="M5480 7438 c0 -6 58 -70 128 -142 390 -397 659 -878 807 -1441 135
-509 136 -1121 5 -1612 -158 -585 -442 -1085 -844 -1483 -53 -52 -96 -100 -96
-107 0 -10 60 -13 280 -13 l279 0 96 118 c241 295 459 667 590 1007 299 772
298 1800 -1 2563 -136 346 -345 704 -587 1002 l-93 115 -282 3 c-213 2 -282
-1 -282 -10z"/>
<path d="M3690 6030 l0 -350 295 0 295 0 0 350 0 350 -295 0 -295 0 0 -350z"/>
<path d="M3690 4000 l0 -350 295 0 295 0 0 350 0 350 -295 0 -295 0 0 -350z"/>
</g>
</svg>
